<svg width="100" height="100" viewBox="0 0 100 100" xmlns="http://www.w3.org/2000/svg">
  <defs>
    <linearGradient id="cakeGradient" x1="0%" y1="0%" x2="100%" y2="100%">
      <stop offset="0%" style="stop-color:#FF6B9D;stop-opacity:1" />
      <stop offset="50%" style="stop-color:#FF8E8E;stop-opacity:1" />
      <stop offset="100%" style="stop-color:#FFB347;stop-opacity:1" />
    </linearGradient>
    <linearGradient id="frostingGradient" x1="0%" y1="0%" x2="100%" y2="100%">
      <stop offset="0%" style="stop-color:#FFFFFF;stop-opacity:1" />
      <stop offset="100%" style="stop-color:#F8F8FF;stop-opacity:1" />
    </linearGradient>
  </defs>
  
  <!-- Cake Base -->
  <ellipse cx="50" cy="75" rx="35" ry="8" fill="url(#cakeGradient)" opacity="0.8"/>
  <rect x="15" y="45" width="70" height="30" fill="url(#cakeGradient)" rx="5"/>
  
  <!-- Frosting -->
  <path d="M15 45 Q25 35 35 45 Q45 35 55 45 Q65 35 75 45 Q85 35 85 45 L85 50 Q75 40 65 50 Q55 40 45 50 Q35 40 25 50 Q15 40 15 50 Z" fill="url(#frostingGradient)"/>
  
  <!-- Cherry on top -->
  <circle cx="50" cy="42" r="4" fill="#FF4444"/>
  <path d="M50 38 Q52 35 54 37" stroke="#228B22" stroke-width="2" fill="none"/>
  
  <!-- Decorative elements -->
  <circle cx="30" cy="55" r="2" fill="#FFB347" opacity="0.8"/>
  <circle cx="70" cy="60" r="2" fill="#FF8E8E" opacity="0.8"/>
  <circle cx="40" cy="65" r="1.5" fill="#FF6B9D" opacity="0.8"/>
  <circle cx="60" cy="50" r="1.5" fill="#FFB347" opacity="0.8"/>
</svg>
